<?xml version="1.0" encoding="utf-8" ?><svg xmlns="http://www.w3.org/2000/svg" xmlns:xlink="http://www.w3.org/1999/xlink" width="1024" height="230" viewBox="0 0 1024 230"><defs><linearGradient id="gradient_0" gradientUnits="userSpaceOnUse" x1="348.0419" y1="174.09062" x2="353.39413" y2="83.026108"><stop offset="0" stop-color="#81FAEE"/><stop offset="1" stop-color="#F0FEF2"/></linearGradient></defs><path fill="url(#gradient_0)" d="M288.805 86.0178C294.692 70.9938 304.489 58.8021 319.555 52.1248C335.052 45.2564 364.663 43.2921 380.881 49.6515C396.157 55.6414 407.819 67.7905 414.272 82.7522C414.936 84.293 416.304 87.7785 416.346 89.367C421.493 100.998 419.608 125.196 414.94 136.983C409.853 150.623 399.264 163.443 385.68 169.353C368.75 176.719 342.462 177.263 325.133 171.077C291.493 159.068 276.623 118.486 288.805 86.0178ZM388.156 90.6603C381.259 78.2378 368.432 70.2617 354.24 69.5708C340.048 68.88 326.507 75.5725 318.437 87.2664C306.926 103.944 309.298 126.524 324.022 140.446C338.747 154.368 361.424 155.472 377.431 143.046C393.438 130.62 397.992 108.377 388.156 90.6603Z"/><path fill="#E7FDF0" d="M288.805 86.0178C294.692 70.9938 304.489 58.8021 319.555 52.1248C335.052 45.2564 364.663 43.2921 380.881 49.6515C396.157 55.6414 407.819 67.7905 414.272 82.7522C414.936 84.293 416.304 87.7785 416.346 89.367C414.739 88.8429 415.063 87.7999 413.08 86.6687L411.811 86.6179C410.016 88.5684 407.662 91.8025 405.285 91.8098C400.215 91.8255 396.499 87.3497 392.601 92.342C392.26 92.7785 391.214 93.9215 390.646 94.1062C389.793 92.4309 389.618 91.3172 388.156 90.6603C381.259 78.2378 368.432 70.2617 354.24 69.5708C340.048 68.88 326.507 75.5725 318.437 87.2664C317.859 86.0965 317.751 85.8156 316.734 85.0235C313.628 85.053 303.294 84.6388 300.98 83.2932C292.728 78.4936 293.278 85.4653 288.805 86.0178Z"/><defs><linearGradient id="gradient_1" gradientUnits="userSpaceOnUse" x1="487.09735" y1="172.38313" x2="483.93814" y2="92.019646"><stop offset="0" stop-color="#7BFAF0"/><stop offset="1" stop-color="#F4FEF4"/></linearGradient></defs><path fill="url(#gradient_1)" d="M434.725 49.0024C440.908 48.6832 447.2 48.6873 453.393 48.7289C459.699 48.8403 466.026 48.5514 472.329 48.7083C490.979 49.1725 510.822 45.6739 525.952 59.3911C533.899 66.5957 537.197 76.1543 537.573 86.7293C537.715 90.7052 537.786 96.2467 536.372 100.007C534.989 113.337 522.817 121.667 512.629 127.814C517.359 134.982 522.647 146.265 527.255 153.983C530.091 158.733 535.58 167.566 537.556 171.94C528.079 172.174 517.831 172.024 508.296 172.059C500.755 159.143 491.816 143.385 485.016 130.12L461.402 130.106C461.745 143.757 461.509 158.342 461.524 172.064C452.695 171.951 443.617 172.032 434.77 172.019C435.027 147.528 434.639 123.321 435.039 98.8029C434.657 84.0596 435.018 69.2412 434.74 54.4882C434.706 52.6889 434.664 50.7919 434.725 49.0024ZM461.052 100.135L461.486 107.45C473.924 107.475 490.1 108.519 502.29 106.222C504.586 105.789 507.5 101.423 509.095 100.42C513.857 90.6652 513.373 76.8024 501.921 73.7105C491.289 70.84 472.751 71.9996 461.396 72.0305C461.07 79.8015 461.911 93.5244 461.052 100.135Z"/><path fill="#E7FDF0" d="M434.725 49.0024C440.908 48.6832 447.2 48.6873 453.393 48.7289C459.699 48.8403 466.026 48.5514 472.329 48.7083C490.979 49.1725 510.822 45.6739 525.952 59.3911C533.899 66.5957 537.197 76.1543 537.573 86.7293C537.715 90.7052 537.786 96.2467 536.372 100.007C534.331 96.9547 536.868 95.1959 535.361 92.8469C532.457 92.5675 532.656 95.8922 530.752 96.9453C527.355 98.8241 511.717 99.0859 509.629 101.009L509.095 100.42C513.857 90.6652 513.373 76.8024 501.921 73.7105C491.289 70.84 472.751 71.9996 461.396 72.0305C461.07 79.8015 461.911 93.5244 461.052 100.135C459.963 98.0455 460.203 95.3873 460.214 93.0015C457.664 94.1012 456.363 98.0424 453.795 98.8024C449.417 100.098 444.303 99.6284 439.782 100.264C438.616 100.428 437.066 102.724 436.324 103.686C435.781 103.169 435.37 100.065 435.039 98.8029C434.657 84.0596 435.018 69.2412 434.74 54.4882C434.706 52.6889 434.664 50.7919 434.725 49.0024Z"/><path fill="#E7FDF0" d="M252.307 48.95C262.11 48.5938 273.771 48.8741 283.717 48.8965C280.485 53.6959 271.983 63.1208 267.906 67.7916L241.698 98.0278C239.543 100.54 233.293 106.889 233.107 109.81C233.337 110.298 233.612 111.044 234.007 111.354L234.03 112.195C229.724 113.279 224.086 116.205 219.555 116.809C215.269 117.38 214.924 120.019 212.472 120.439C211.133 118.888 209.999 117.328 208.082 116.572C206.638 115.655 205.347 112.553 203.652 111.558C202.811 112.546 203.098 113.281 203.056 114.862C203.801 118.625 203.37 127.544 203.445 131.854C203.67 144.864 202.86 158.928 203.434 171.846C194.818 171.962 186.145 171.907 177.525 171.903C177.502 152.94 177.006 131.95 177.532 113.159C176.868 103.183 177.279 90.9309 177.385 80.9977C177.5 70.2485 177.464 59.6928 177.379 48.938L203.228 48.9677C204.172 63.1073 203.149 78.2639 203.358 92.5109C203.426 97.1318 203.591 102.747 203.11 107.282C204.88 105.019 207.28 102.212 209.231 100.087C223.977 84.0257 237.132 64.409 252.307 48.95Z"/><path fill="#A5FBEF" d="M177.532 113.159L177.571 113.015C178.89 108.003 176.76 95.6387 179.131 91.5468C181.71 90.1064 186.392 97.2326 189.051 99.1256C191.835 101.107 200.753 102.762 202.174 103.999C202.638 108.047 202.477 116.023 202.491 120.424C203.095 118.046 202.776 116.92 203.056 114.862C203.801 118.625 203.37 127.544 203.445 131.854C203.67 144.864 202.86 158.928 203.434 171.846C194.818 171.962 186.145 171.907 177.525 171.903C177.502 152.94 177.006 131.95 177.532 113.159Z"/><path fill="#E7FDF0" d="M550.605 48.8743C583.409 49.3398 617.175 48.9565 650.059 48.9716C650.251 56.9627 649.839 64.6851 650.276 72.8158C638.82 73.4054 624.263 73.0389 612.587 73.0497C612.927 75.9775 612.787 80.5477 612.774 83.6231L612.852 141.643C612.854 150.197 613.28 163.806 612.659 171.947L587.403 172.104C586.542 155.752 587.639 138.833 587.203 122.422C587.124 119.44 587.254 116.313 587.495 113.34C587.168 110.263 587.407 102.448 587.428 98.9982L587.484 72.8945C575.447 73.0317 562.503 73.1167 550.499 72.7867L550.605 48.8743Z"/><path fill="#A5FBEF" d="M588.004 106.296C594.383 100.071 596.559 102.451 604.659 102.17C606.124 102.119 609.385 99.2298 611.822 99.3663C612.361 102.034 611.525 111.51 612.15 113.657C612.38 109.457 611.845 85.0913 612.774 83.6231L612.852 141.643C612.854 150.197 613.28 163.806 612.659 171.947L587.403 172.104C586.542 155.752 587.639 138.833 587.203 122.422C587.124 119.44 587.254 116.313 587.495 113.34C588.381 112.13 588.029 108.044 588.004 106.296Z"/><defs><linearGradient id="gradient_2" gradientUnits="userSpaceOnUse" x1="710.70508" y1="172.76488" x2="705.38922" y2="93.369194"><stop offset="0" stop-color="#7FFAEE"/><stop offset="1" stop-color="#E9FEF2"/></linearGradient></defs><path fill="url(#gradient_2)" d="M666.964 93.8786L667.323 93.7921C669.24 94.4435 666.979 96.2488 669.544 98.9056C672.558 99.3607 686.229 95.222 689.42 94.6218L691.431 96.166L692.181 95.9763L693.028 92.2011L693.384 97.9528C709.958 98.0174 727.435 98.2886 743.958 97.9571C744.029 105.283 743.909 113.828 744.325 121.054L693.065 120.991C693.314 128.66 692.794 139.936 693.406 146.892C710.811 145.828 735.78 146.503 753.513 146.751C753.51 151.603 753.243 167.537 753.864 171.514L753.341 172.469C750.104 174.413 677.216 172.22 668.458 172.837C667.52 172.904 667.217 172.22 666.742 171.545C667.192 166.576 666.708 156.108 666.806 150.531C667.138 131.734 666.529 112.674 666.964 93.8786Z"/><path fill="#E7FDF0" d="M855.133 48.9661C865.014 48.7331 875.342 48.8969 885.256 48.9144C883.614 51.3899 881.816 53.9068 880.063 56.3095C867.475 73.5655 855.604 91.5557 842.643 108.522C844.322 111.418 847.328 115.006 849.329 118.296C846.768 117.645 845.129 113.31 843.278 111.475C843.188 111.386 835.996 113.586 835.223 114.092C832.064 116.156 813.04 118.451 810.356 115.798L809.633 113.855C807.64 114.399 806.19 119.219 803.657 119.807C804.601 117.929 809.673 111.051 811.191 108.93L785.447 73.1339C780.982 66.9566 772.141 55.2523 768.61 48.9528L798.793 49.0281C801.279 51.4186 806.867 59.8217 809.128 63.0856L827.235 89.3235C830.267 84.0812 835.874 76.5843 839.44 71.4209C844.425 64.2039 849.86 55.8651 855.133 48.9661Z"/><path fill="#A5FBEF" d="M803.657 119.807C806.19 119.219 807.64 114.399 809.633 113.855L810.356 115.798C813.04 118.451 832.064 116.156 835.223 114.092C835.996 113.586 843.188 111.386 843.278 111.475C845.129 113.31 846.768 117.645 849.329 118.296C851.37 120.312 862.814 136.631 865.171 140.224C871.782 150.301 880.837 161.67 887.068 171.573L857.872 171.621C847.261 158.053 837.09 142.167 826.934 128.102C821.408 136.721 814.229 146.146 808.311 154.617C805.665 158.405 798.646 168.529 795.786 171.615C785.842 171.723 776.028 171.686 766.087 171.614C769.517 166.416 801.968 120.809 803.657 119.807Z"/><path fill="#E7FDF0" d="M666.94 48.9512L751.937 48.9221L751.888 73.2056C732.484 72.9475 712.545 73.2235 693.057 73.1142C693.364 76.8659 693.514 88.78 693.028 92.2011L692.181 95.9763L691.431 96.166L689.42 94.6218C686.229 95.222 672.558 99.3607 669.544 98.9056C666.979 96.2488 669.24 94.4435 667.323 93.7921L666.964 93.8786C666.694 91.6272 666.829 83.2288 666.815 80.644L666.94 48.9512Z"/><defs><linearGradient id="gradient_3" gradientUnits="userSpaceOnUse" x1="254.63715" y1="176.65866" x2="240.06198" y2="110.71803"><stop offset="0" stop-color="#68F5EA"/><stop offset="1" stop-color="#D6FFF3"/></linearGradient></defs><path fill="url(#gradient_3)" d="M233.107 109.81C235.959 111.823 281.126 165.944 284.996 171.823C276.201 172.062 263.059 172.342 254.358 171.941C246.279 166.338 231.726 143.931 224.041 136.172C221.834 133.943 209.531 118.962 208.082 116.572C209.999 117.328 211.133 118.888 212.472 120.439C214.924 120.019 215.269 117.38 219.555 116.809C224.086 116.205 229.724 113.279 234.03 112.195L234.007 111.354C233.612 111.044 233.337 110.298 233.107 109.81Z"/></svg>