<?xml version="1.0" encoding="utf-8" ?><svg xmlns="http://www.w3.org/2000/svg" xmlns:xlink="http://www.w3.org/1999/xlink" width="504" height="363" viewBox="0 0 504 363"><defs><linearGradient id="gradient_0" gradientUnits="userSpaceOnUse" x1="282.1825" y1="-30.793034" x2="221.56752" y2="393.54303"><stop offset="0" stop-color="#001324" stop-opacity="0"/><stop offset="1" stop-color="#002F4F" stop-opacity="0"/></linearGradient></defs><path fill="url(#gradient_0)" d="M0 0L504 0L504 129.177L504 169.922L504 233.623L504 237.038L504 263.748L504 267.414L504 293.52L504 297.654L504 363L0 363L0 313.42L0 308.12L0 133.13L0 128.665L0 0Z"/><defs><linearGradient id="gradient_1" gradientUnits="userSpaceOnUse" x1="133.7673" y1="356.65369" x2="2.013412" y2="305.96597"><stop offset="0" stop-color="#003D5F" stop-opacity="0"/><stop offset="1" stop-color="#005C7C" stop-opacity="0.52549022"/></linearGradient></defs><path fill="url(#gradient_1)" d="M0 308.12C12.4601 315.907 20.79 313.939 34.7599 314.983C40.5224 315.414 47.8005 317.272 53.1158 319.568C70.092 326.899 70.5554 340.917 90.5218 345.697C105.992 349.401 113.875 340.929 128.192 344.439C129.802 344.834 134.302 348.125 135.876 349.243C135.882 350.086 136.051 350.915 135.652 351.49C133.383 350.348 130.741 348.606 128.254 348.057C115.421 345.228 104.055 353.063 91.0864 349.968C81.5062 347.682 75.4729 344.367 68.6233 337.259C63.343 331.868 58.1912 326.005 51.0384 323.084C43.7624 320.112 34.793 318.438 26.9287 318.557C16.354 318.717 9.68698 317.627 0 313.42L0 308.12Z"/><defs><linearGradient id="gradient_2" gradientUnits="userSpaceOnUse" x1="455.79175" y1="302.12634" x2="435.08322" y2="289.07202"><stop offset="0" stop-color="#014C69" stop-opacity="0.15686275"/><stop offset="1" stop-color="#007381" stop-opacity="0.52549022"/></linearGradient></defs><path fill="url(#gradient_2)" d="M476.136 263.731C477.26 263.717 478.315 263.555 479.224 264.116C479.943 265.259 479.038 266.683 478.114 267.447C474.092 268.91 471.728 268.73 467.524 271.137C462.855 273.81 460.808 275.854 457.096 279.479C447.453 288.897 442.901 301.272 434.866 311.708C430.17 317.619 424.528 322.771 417.661 326.033C416.44 326.614 410.174 330.037 409.303 329.584C410.036 328.814 412.119 328.685 412.615 327.841C413.117 326.987 413.06 325.82 412.543 325.022L411.727 324.888C412.33 324.229 415.368 323.12 416.327 322.52C417.182 322.086 418.046 321.555 418.87 321.081C428.143 315.742 434.323 307.833 439.386 298.569C445.291 287.766 452.331 277.113 462.659 270.01C464.352 268.845 466.225 267.761 468.122 266.953C470.574 265.828 473.912 265.14 476.136 263.731Z"/><path fill="#016081" fill-opacity="0.50196081" d="M504 297.654C500.752 297.562 498.544 297.387 495.227 297.931C485.068 299.598 476.398 307.381 470.218 315.213C465.615 321.046 461.566 327.492 455.649 332.237C454.723 332.98 450.488 336.464 449.594 336.381C452.703 333.772 455.925 332.1 458.843 328.732L458.763 328.27L457.998 328.858C457.306 328.414 457.415 327.885 457.043 326.842C455.583 326.338 452.347 331.558 448.898 332.777C448.934 332.666 454.592 328.153 455.651 327.068C464.221 318.285 468.074 308.819 478.471 301.498C487.825 294.911 492.577 293.338 504 293.52L504 297.654Z"/><path fill="#002D47" fill-opacity="0.20784314" d="M0 128.665C8.04456 130.399 14.9188 130.276 23.1232 130.249C25.8824 130.239 29.6675 129.962 32.2792 130.249C31.9816 131.422 32.1331 132.257 32.2447 133.46C19.5783 134.078 12.6377 134.732 0 133.13L0 128.665Z"/><path fill="#002D47" fill-opacity="0.20784314" d="M476.136 263.731C476.942 262.58 477.272 263.045 478.582 263.149C480.72 263.318 480.404 262.937 481.03 261.254L481.354 261.304C481.084 262.101 480.75 262.551 481.028 263.151C488.2 263.795 496.721 263.579 504 263.748L504 267.414C495.907 267.582 485.734 266.946 478.114 267.447C479.038 266.683 479.943 265.259 479.224 264.116C478.315 263.555 477.26 263.717 476.136 263.731Z"/><path fill="#002D47" fill-opacity="0.20784314" d="M504 233.623L504 237.038C497.705 237.95 490.753 237.78 484.865 238.751C486.387 242.293 486.912 244.728 485.933 248.632C485.751 247.881 485.858 247.028 485.92 246.146C486.094 243.67 485.47 239.871 484.069 237.774C484.072 237.777 483.122 236.615 483.079 236.563C483.007 235.828 482.887 236.094 483.211 235.631C484.616 236.948 485.221 234.448 486.654 234.41C492.177 234.263 498.533 233.664 504 233.623Z"/><path fill="#002D47" fill-opacity="0.20784314" d="M488.342 94.8683C489.654 93.5218 491.524 91.7419 493.299 93.5457C494.57 96.2386 491.343 98.2848 489.197 99.0581C489.064 98.7743 488.676 95.9687 488.342 94.8683Z"/><path fill="#002D47" fill-opacity="0.20784314" d="M32.2792 130.249C33.9297 130.295 35.5825 130.113 36.823 131.165C37.4323 133.113 33.5448 133.408 32.2447 133.46C32.1331 132.257 31.9816 131.422 32.2792 130.249Z"/><path fill="#01CAE9" d="M84.9794 154.859C83.8021 148.089 84.9958 142.422 92.8042 140.85C101.509 139.098 107.937 150.23 102.131 157.012C98.2797 161.511 93.8205 161.245 88.7234 159.149C77.4644 170.824 77.9969 189.722 89.7716 200.723C95.4572 206.039 103.386 209.839 111.27 209.747C117.436 209.676 117.899 203.189 125.285 204.242C130.433 204.976 134.184 209.014 134.609 214.129C135.054 219.503 129.366 225.095 124.128 224.989C118.164 224.982 114.637 220.502 112.961 215.309C102.987 214.896 94.1818 212.101 86.7048 205.227C83.5625 202.338 81.6159 199.421 79.2614 195.91C70.7105 199.857 64.1784 205.793 60.6582 214.813C54.531 230.511 60.4682 248.892 76.9331 255.15C81.4909 256.882 89.4848 257.329 94.3087 256.068C97.9097 251.172 102.389 246.715 108.862 250.922C110.917 252.257 111.884 254.296 113.363 256.11C123.814 256.805 135.016 255.967 145.546 256.273C147.155 256.32 149.33 256.322 150.934 256.212C152.32 253.122 153.285 249.67 154.512 246.504C157.984 237.542 163.899 228.686 173.249 225.196C182.288 221.822 194.79 222.092 203.489 226.22C210.604 229.681 217.735 237.089 220.048 244.679C222.801 253.713 225.584 261.229 234.789 265.553C240.74 268.348 248.179 267.567 254.627 267.676C261.092 267.784 267.503 267.625 273.963 267.646C277.141 267.622 284.292 267.248 287.125 268.356C296.554 272.043 305.687 281.655 313.513 288.098C315.558 289.781 318.581 292.945 320.804 293.814C322.71 294.559 328.972 294.343 331 294.073C333.116 291.797 336.766 287.47 340.391 287.838C353.918 289.21 355.332 308.141 340.368 308.744C335.06 308.958 331.452 304.92 329.683 300.267C317.764 300.368 320.478 301.471 311.638 293.777C303.793 286.95 295.421 278.294 286.068 273.871C283.785 272.872 275.861 273.222 273.133 273.239L256.542 273.311C249.195 273.337 242.404 273.586 235.179 271.844C233.714 271.386 232.518 270.954 231.085 270.399C223.55 265.362 219.487 259.918 216.253 251.428C214.986 248.124 214.244 244.727 212.382 241.662C206.615 232.169 198.656 228.877 188.004 228.614C176.898 228.34 169.875 230.863 163.585 240.577C159.181 247.379 157.465 253.388 156.514 261.442C152.707 261.817 147.678 261.693 143.783 261.681L123.567 261.69C120.417 261.69 116.29 261.531 113.22 261.686C110.795 264.348 108.325 267.407 104.433 267.642C99.9924 267.91 97.8669 264.636 94.8611 262.388C81.3887 262.061 72.8517 262.432 62.5521 251.694C55.8143 244.67 52.8683 236.174 53.1075 226.446C53.373 215.648 57.2982 206.663 65.0384 199.102C68.8132 195.415 72.5815 193.51 77.0426 190.861C73.1001 177.385 75.7599 165.42 84.9794 154.859Z"/><path fill="#002D47" fill-opacity="0.20784314" d="M339.604 293.745C345.621 293.054 348.474 301.372 341.316 302.967C334.713 303.392 333.558 297.25 339.604 293.745Z"/><path fill="#002D47" fill-opacity="0.20784314" d="M122.385 210.187C124.815 209.391 127.433 210.701 128.253 213.123C129.073 215.545 127.79 218.176 125.376 219.021C123.793 219.575 122.034 219.236 120.77 218.133C119.507 217.031 118.932 215.335 119.266 213.691C119.6 212.047 120.791 210.709 122.385 210.187Z"/><path fill="#01CAE9" d="M288.863 167.916C286.55 165.545 283.378 162.941 283.483 159.444C283.843 147.453 301.553 146.335 301.98 159.046C302.114 163.054 298.01 166.017 295.283 168.63C294.442 183.317 296.706 201.65 280.88 209.913C274.297 213.35 263.387 212.493 255.897 212.515C255.82 213.632 255.759 214.821 255.774 215.983C255.888 224.816 253.147 235.307 262.908 240.212C266.223 241.878 271.558 241.78 275.137 241.286C285.163 239.903 292.262 231.567 298.723 224.569C302.415 220.571 306.12 216.553 309.917 212.638L332.898 188.796C336.307 185.291 345.105 176.473 347.795 172.811C346.899 170.349 345.578 167.443 345.892 164.826C347.692 149.817 369.257 151.593 368.178 166.779C367.943 170.072 366.219 172.54 363.672 174.587C360.211 177.368 356.665 177.127 352.516 176.575C350.646 178.014 344.159 185.048 342.148 187.213C334.969 194.938 326.834 202.926 319.958 210.836C324.298 210.66 329.626 210.845 334.057 210.864L357.433 210.821C371.352 210.752 372.059 212.005 382.916 202.5C383.093 199.854 383.348 197.734 384.891 195.499C387.929 191.103 394.231 190.494 398.392 193.615C402.806 196.927 403.926 202.855 400.517 207.291C398.937 209.346 396.558 211.032 393.938 211.362C390.246 211.827 387.847 209.996 385.108 207.851C382.202 209.609 376.422 214.664 373.848 215.317C370.926 216.058 362.528 215.888 359.154 215.902L330.093 215.975C325.508 215.98 319.648 215.747 315.258 216.027C311.427 218.498 301.081 230.073 297.712 233.927C297.182 234.475 288.892 241.926 289.229 241.339C279.545 247.461 266.858 250.227 257.029 242.957C240.831 231.295 256.884 205.356 243.722 192.252C235.435 184.002 221.745 181.095 210.433 181.741C204.045 182.106 196.452 181.896 190.116 181.597C188.411 182.972 187.074 184.912 185.194 186.238C180.362 189.605 173.683 188.912 170.267 183.835C165.021 176.036 171.84 165.828 181.043 167.667C185.157 168.489 187.541 171.889 189.686 175.197C200.183 175.592 215.199 174.24 224.896 176.334C236.207 178.777 249.46 185.542 253.289 196.998C254.383 200.27 255.029 203.201 255.866 206.661C258.636 206.802 261.338 206.845 264.032 206.852C273.477 206.877 282.627 205.782 286.624 195.846C288.963 190.029 288.749 185.131 288.776 178.993C288.793 175.326 288.899 171.599 288.863 167.916Z"/><defs><linearGradient id="gradient_3" gradientUnits="userSpaceOnUse" x1="377.66565" y1="242.35471" x2="50.254578" y2="104.53216"><stop offset="0" stop-color="#00587F" stop-opacity="0.27843139"/><stop offset="1" stop-color="#027481" stop-opacity="0.50980395"/></linearGradient></defs><path fill="url(#gradient_3)" d="M197.158 27.7484C199.022 26.7381 201.043 25.3007 203.009 24.2112C209.252 20.752 214.67 19.1876 221.609 18.1076C231.208 16.6137 238.873 18.2671 248.268 18.7887C252.766 18.8714 257.36 18.5992 261.852 18.524C276.348 18.2814 290.552 21.4613 303.865 27.1191C310.256 29.8356 316.659 32.9755 323.173 35.4419C329.19 37.7199 335.681 39.2134 341.846 41.0851C358.783 46.0134 375.571 52.7865 387.444 66.422C392.615 72.3531 398.774 83.6773 401.941 90.9053C406.043 100.267 408.417 108.461 415.856 116.132C419.763 120.161 421.885 120.614 425.837 123.58C426.204 124.273 426.549 124.979 426.898 125.681L426.65 126.153C424.094 126.838 421.336 124.538 420.255 124.613C418.809 124.038 416.388 121.831 415.182 120.815C405.601 112.738 401.813 101.027 397.114 89.8842C395.245 85.9472 392.974 81.7418 390.792 77.9928C382.036 62.9504 367.274 53.6024 351.046 48.3509C341.965 45.4121 332.551 42.5359 323.499 39.5027C311.508 35.485 300.104 28.4462 287.535 25.669C280.013 23.8724 270.869 21.9624 263.094 22.3706C253.168 22.8918 244.935 22.8454 235.08 21.6147C225.836 20.4605 214.635 22.7662 206.414 26.9458C203.653 28.3498 200.595 30.3577 197.803 32.0067C190.833 29.587 188.536 28.6924 181.051 28.4538C166.341 27.9849 150.074 34.1352 139.27 44.0678C135.947 47.1231 134.511 48.4004 131.699 51.9336C129.424 54.7938 125.762 62.3609 123.522 63.569C121.13 64.8594 113.446 66.3295 110.243 67.3711C96.0155 71.9983 81.3256 79.1515 70.4145 89.4806C59.9507 99.104 52.7633 113.401 49.3758 127.112C45.2999 143.609 40.5861 154.49 30.1487 167.958C19.8453 181.253 13.8798 199.358 13.7077 216.201C13.4851 237.98 18.8476 258.648 35.0072 274.091C47.6119 286.726 66.3844 297.696 84.4344 299.345C91.3922 299.981 102.362 298.966 109.962 299.038L110.062 299.149C107.612 299.709 102.078 298.916 99.2712 299.574L99.1843 299.802C99.7376 299.844 99.9606 299.842 100.505 300.011C100.284 300.53 100.17 300.423 99.4713 300.732L99.7347 301.078L99.7055 300.9L99.4722 300.777L99.6977 301.276L99.4742 301.736C98.8576 301.905 98.5742 301.92 98.124 302.376L98.181 302.553C98.6812 302.793 107.172 302.532 108.408 302.559C88.3567 303.271 78.8973 305.661 59.4158 296.116C40.1484 286.859 21.3395 269.899 14.5598 249.064C6.51544 224.342 8.07658 195.364 22.1015 172.994C27.2665 164.755 34.3563 156.744 38.3877 147.956C44.3531 134.951 46.0919 120.123 52.5431 107.286C64.3563 82.847 88.9317 69.1345 114.188 62.1854C116.582 61.5267 118.976 61.1325 121.347 60.3187C123.5 58.1333 125.481 53.8846 127.43 51.236C142.683 30.5154 172.321 18.2865 197.158 27.7484Z"/><path fill="#01CAE9" d="M180.395 59.2692C187.086 58.7903 192.489 62.5558 191.732 69.8844C191.353 73.5583 188.355 75.8699 185.587 77.9652C185.423 83.8647 185.332 91.2317 185.506 97.1036C195.965 106.562 208.004 115.676 213.836 128.866C216.111 134.011 220.535 151.68 218.785 156.371C216.729 158.358 213.965 157.85 213.52 154.684C211.694 141.695 211.645 131.28 201.572 121.527C190.06 121.182 174.486 128.491 169.083 138.994C167.724 141.773 167.052 144.966 165.996 147.804C165.057 150.329 159.15 147.64 156.844 147.395C149.707 146.64 142.158 146.19 135.296 148.736C123.328 154.222 116.825 162.433 113.957 174.944C113.718 175.591 113.254 178.221 112.504 178.436C104.483 180.698 109.438 170.328 110.673 167.092C119.108 144.987 139.595 137.932 161.435 142.097C163.588 137.669 165.451 133.494 168.932 129.907C176.154 122.468 187.386 116.474 197.818 116.17C191.915 109.607 185.57 105.436 179.521 99.4516C179.153 92.7778 179.446 84.9025 179.445 78.0729C176.652 76.3015 174.087 74.228 173.134 70.9485C171.507 65.3421 175.217 60.7331 180.395 59.2692Z"/><defs><linearGradient id="gradient_4" gradientUnits="userSpaceOnUse" x1="345.97437" y1="196.65245" x2="418.60648" y2="160.60083"><stop offset="0" stop-color="#016078" stop-opacity="0.30588236"/><stop offset="1" stop-color="#027D90" stop-opacity="0.81960785"/></linearGradient></defs><path fill="url(#gradient_4)" d="M426.67 214.179C430.07 203.584 428.226 186.202 422.785 176.216C416.441 164.574 407.543 158.328 395.789 152.762C389.755 149.904 384.403 147.635 379.811 142.718C372.392 134.945 370.888 124.759 368.04 114.87C363.222 98.1404 349.976 84.6046 333.378 79.3504C327.689 77.5494 322.284 77.1171 316.418 76.3687C315.767 76.2856 315.318 75.9873 314.884 75.5106C313.33 71.0284 321.145 72.5763 323.371 72.9387C332.408 74.4097 341.335 77.3193 349.009 82.3994C363.379 92.0531 370.281 104.539 374.177 121.112C375.356 126.127 377.451 133.029 380.503 137.212C385.553 144.134 393.833 147.54 401.265 151.317C416.898 159.265 427.523 171.204 431.11 188.625C433.08 198.198 432.192 206.03 432.367 215.655C432.862 242.834 434.275 266.673 418.43 290.545C413.531 297.925 407.39 304.338 400.158 309.555C398.456 310.782 396.759 311.449 395.02 312.499L394.812 312.398C396.238 310.902 400.438 309.725 401.614 307.722C400.933 302.428 394.855 310.457 392.45 309.53C393.584 308.742 395.406 308.266 396.588 307.488C413.819 296.148 423.358 277.181 427.148 257.378C429.492 245.135 427.8 233.478 428.505 221.411C428.789 218.58 427.605 216.361 428.159 213.801C428.259 213.336 428.248 213.574 428.033 213.071L427.632 213.105L426.977 214.238L426.67 214.179Z"/><path fill="#01CAE9" d="M220.112 43.277C225.56 42.7018 230.721 45.4405 230.908 51.5202C231.041 55.8276 227.874 58.1183 225.034 60.8862C224.957 62.3259 224.933 63.8649 224.943 65.3109C224.997 73.6948 224.512 82.276 224.889 90.6429C226.714 93.5269 240.935 105.705 244.265 108.073C246.392 106.506 249.801 102.764 251.779 100.781C256.558 95.9884 260.872 91.6961 266.405 87.763C266.874 84.7393 266.995 81.3494 266.953 78.2878C265.605 76.83 263.862 75.7232 262.553 74.1364C257.112 67.5386 262.759 58.4564 270.969 59.457C273.863 59.8097 275.818 61.1735 277.571 63.4641C281.587 69.8061 277.465 73.6937 273.11 77.9735C272.991 81.6737 273.03 85.5968 272.403 89.256C271.806 92.7481 267.218 93.8842 264.871 96.0558C260.536 100.069 256.45 104.355 252.226 108.469C249.502 111.122 246.738 114.332 243.509 116.289C241.158 114.453 235.228 108.509 232.768 106.151C229.008 102.546 221.876 97.1457 218.86 93.7753C218.737 92.3521 218.708 90.9301 218.701 89.5021C218.648 79.8779 218.866 70.2488 218.698 60.6256C216.483 58.6576 214.075 56.9251 213.189 53.9804C211.644 48.8416 215.456 44.7396 220.112 43.277Z"/><defs><linearGradient id="gradient_5" gradientUnits="userSpaceOnUse" x1="42.372627" y1="139.67648" x2="138.92328" y2="254.45129"><stop offset="0" stop-color="#00213F" stop-opacity="0"/><stop offset="1" stop-color="#005E79" stop-opacity="0.50196081"/></linearGradient></defs><path fill="url(#gradient_5)" d="M117.872 284.814C113.654 285.265 108.536 284.922 104.223 284.998C90.1447 285.247 80.0753 285.444 67.1303 279.228C50.4223 271.205 39.5931 259.252 33.3879 241.715C26.1344 222.213 30.4802 200.604 41.3248 183.297C45.7068 175.85 53.0948 168.428 56.5127 160.553C61.7107 148.578 62.2985 135.578 68.3742 123.7C73.5978 112.909 83.3703 103.759 93.7859 98.0118C95.4628 97.0864 101.734 92.5908 103.548 93.4796C103.76 96.6165 94.8466 101.204 92.2821 102.969C87.851 106.019 84.107 109.365 80.3576 113.216C71.0393 122.785 66.9961 134.456 64.1688 147.267C63.1261 151.949 61.8191 157.228 59.9589 161.657C57.4642 167.597 53.2008 172.736 49.4345 177.893C42.6477 187.64 37.6446 195.987 35.3333 207.698C34.1442 213.722 33.0764 218.479 33.4277 224.87C34.216 239.209 42.6732 255.129 53.0344 264.865C61.7252 273.032 73.9802 279.23 85.8269 280.707C90.9135 281.341 98.1731 280.985 103.406 280.801L101.904 281.209L103.169 281.288C103.397 281.734 103.256 284.203 103.056 284.607C107.696 284.855 113.616 284.477 117.872 284.814Z"/><path fill="#01CAE9" d="M306.693 103.034C316.483 102.151 322.5 113.191 315.966 120.72C312.374 124.859 309.747 123.936 304.874 124.792C302.574 125.274 299.275 128.661 297.294 129.177C287.456 131.739 279.339 128.339 269.802 133.583C261.125 138.355 261.929 144.517 256.347 151.55C251.467 157.699 245.86 163.393 240.719 169.367C239.587 170.623 238.22 172.415 236.507 172.736C235.223 172.977 232.806 170.451 233.1 169.508C234.036 166.503 238.368 163.053 240.499 160.595C243.694 156.91 247.274 153.915 250.087 149.93C255.951 141.311 257.785 132.842 268.033 127.963C274.026 124.891 280.745 124.648 287.34 124.218C292.63 123.873 295.332 124.078 299.177 120.008C298.778 119.031 297.84 117.01 297.68 116.055C296.65 109.91 300.931 104.385 306.693 103.034Z"/><path fill="#002D47" fill-opacity="0.20784314" d="M464.054 203.11C462.714 201.7 462.649 200.62 461.764 199.581C461.536 199.312 458.81 197.341 458.306 196.949C455.542 194.796 451.791 191.351 449.903 188.457C446.372 183.045 444.787 176.614 442.597 170.646C441.223 167.156 438.93 164.186 436.882 161.072C434.497 157.446 432.344 153.048 428.784 150.431C422.902 146.107 415.831 144.316 409.258 141.398C404.121 139.117 397.904 135.419 394.103 131.231C389.523 125.798 386.92 118.887 384.638 112.257C382.776 106.849 380.648 101.107 378.12 95.9596C372.506 86.0904 362.26 76.7446 353.159 70.0108C349.628 67.3984 343.693 65.051 339.566 63.3747C336.701 62.2105 333.401 61.5142 330.728 59.7931L330.627 59.2537C331.264 58.6347 332.533 58.7422 333.454 58.7814C341.788 59.1364 353.669 65.2642 360.284 70.0371C369.108 76.4043 378.292 86.9944 382.896 96.7931C387.63 107.042 389.686 119.326 396.157 128.645C398.168 131.539 406.884 135.933 410.353 137.416C417.027 140.27 427.007 143.141 432.255 148.481C437.257 153.572 442.413 161.533 445.338 168.083C447.655 174.265 449.435 180.027 452.942 185.664C456.702 191.706 462.47 194.796 467.084 199.556C474.961 202.964 466.238 211.224 464.054 203.11Z"/><path fill="#01CAA8" d="M467.084 199.556C474.961 202.964 466.238 211.224 464.054 203.11C464.506 200.788 465.017 200.411 467.084 199.556Z"/><path fill="#016081" fill-opacity="0.50196081" d="M103.406 280.801C116.288 280.475 129.171 280.308 141.955 280.22C153.792 280.137 167.42 276.749 179.01 279.173C200.052 283.575 210.885 304.423 210.069 324.636C209.745 332.662 210.878 341.437 209.217 349.234C209.135 349.548 208.23 350.066 207.587 350.152C206.937 349.786 206.507 349.475 206.357 348.603C205.762 345.144 205.968 340.085 205.989 336.502C206.103 317.209 205.908 297.962 187.32 286.721C175.279 279.438 158.053 283.597 144.794 284.297C139.797 284.56 134.292 284.622 129.252 284.685C125.889 284.727 121.09 284.969 117.872 284.814C113.616 284.477 107.696 284.855 103.056 284.607C103.256 284.203 103.397 281.734 103.169 281.288L101.904 281.209L103.406 280.801Z"/><path fill="#016081" fill-opacity="0.50196081" d="M426.67 214.179L426.977 214.238L427.632 213.105L428.033 213.071C428.248 213.574 428.259 213.336 428.159 213.801C427.605 216.361 428.789 218.58 428.505 221.411C427.663 222.16 427.174 223.851 426.518 224.818C422.701 230.442 416.75 234.881 413.263 240.774C410.907 244.756 410.439 250.546 409.825 255.066C407.538 271.924 399.685 288.94 382.691 295.198C380.456 296.017 373.16 300.144 372.04 296.805C370.828 293.195 378.754 292.387 380.72 291.353C395.999 285.999 404.322 269.021 405.786 253.781C406.673 244.555 408.197 239.189 414.711 232.417C418.684 228.286 423 222.89 425.147 217.596C425.6 216.478 426.075 215.241 426.67 214.179Z"/><defs><linearGradient id="gradient_6" gradientUnits="userSpaceOnUse" x1="473.23987" y1="207.81386" x2="449.81415" y2="118.3924"><stop offset="0" stop-color="#002039" stop-opacity="0.40784314"/><stop offset="1" stop-color="#006785" stop-opacity="0.23137255"/></linearGradient></defs><path fill="url(#gradient_6)" d="M425.837 123.58C430.248 125.798 435.335 128.045 439.559 130.344C450.17 136.175 458.466 144.126 464.779 154.456C467.463 158.847 469.526 164.421 472.601 168.379C474.398 170.694 481.805 171.487 484.786 173.627C491.046 178.122 493.896 185.016 496.223 192.109C496.902 194.438 499.365 199.74 499.35 201.15C498.925 201.765 499.131 201.565 498.344 201.855C495.616 201.553 493.858 194.392 492.776 191.973C490.958 187.907 489.076 183.989 486.314 180.453C481.792 174.283 475.123 175.549 470.09 171.645C468.874 170.702 464.166 161.569 463.003 159.592C460.685 155.653 458.736 152.752 455.919 149.063C448.895 139.867 440.324 135.206 430.151 130.223C427.859 129.1 422.345 126.186 420.255 124.613C421.336 124.538 424.094 126.838 426.65 126.153L426.898 125.681C426.549 124.979 426.204 124.273 425.837 123.58Z"/><path fill="#01CAE9" d="M131.034 94.2673C136.981 93.3985 142.504 97.5216 143.362 103.47C144.219 109.419 140.086 114.934 134.136 115.78C128.201 116.625 122.704 112.505 121.848 106.572C120.993 100.639 125.103 95.1337 131.034 94.2673Z"/><path fill="#016081" fill-opacity="0.50196081" d="M289.229 241.339C288.892 241.926 297.182 234.475 297.712 233.927C299.507 235.832 300.163 234.397 302.327 235.199C316.326 237.834 321.78 248.846 333.942 252.82C339.523 254.644 353.131 254.01 359.372 253.817C359.04 255.426 359.133 257.093 359.64 258.656C353.168 258.711 343.066 259.055 336.98 258.233C330.255 256.887 323.132 252.635 317.924 248.399C311.828 243.441 307.8 240.544 300.084 238.999C297.688 239.017 296.398 239.391 294.089 239.777C293.119 239.939 292.901 239.26 292.762 239.323C291.621 239.836 290.598 241.608 289.229 241.339Z"/><path fill="#002D47" fill-opacity="0.20784314" d="M289.229 241.339C288.892 241.926 297.182 234.475 297.712 233.927C299.507 235.832 300.163 234.397 302.327 235.199C300.861 235.279 299.429 235.336 297.961 235.38C297.308 236.277 297.177 236.764 296.279 237.184L296.552 237.005L296.066 236.931L296.014 236.763L296.574 236.973L296.377 237.099L295.852 236.61C295.153 237.281 294.893 237.323 294.631 238.176C295.898 239.035 297.718 238.115 300.084 238.999C297.688 239.017 296.398 239.391 294.089 239.777C293.119 239.939 292.901 239.26 292.762 239.323C291.621 239.836 290.598 241.608 289.229 241.339Z"/><path fill="#01CAE9" d="M359.372 253.817C360.333 249.152 364.606 245.925 369.356 246.277C374.106 246.628 377.857 250.45 378.12 255.206C378.384 259.961 375.077 264.174 370.395 265.048C365.713 265.922 361.11 263.186 359.64 258.656C359.133 257.093 359.04 255.426 359.372 253.817Z"/><path fill="#028697" fill-opacity="0.50980395" d="M231.085 270.399C232.518 270.954 233.714 271.386 235.179 271.844L234.777 271.966C234 273.296 235.884 326.815 234.137 333.917C233.199 334.37 232.469 334.74 231.538 334.203C230.387 332.41 230.744 323.018 230.751 320.264L230.801 300.701L230.826 282.153C230.833 278.872 230.753 273.561 231.085 270.399Z"/><path fill="#01CAE9" d="M289.267 62.2573C291.697 61.7967 294.187 62.6804 295.783 64.57C297.379 66.4595 297.833 69.0621 296.973 71.3809C296.112 73.6998 294.07 75.3756 291.627 75.7665C287.925 76.359 284.434 73.8687 283.788 70.1755C283.143 66.4824 285.583 62.9554 289.267 62.2573Z"/><path fill="#016081" fill-opacity="0.50196081" d="M250.581 324.354C250.501 321.297 250.814 296.834 251.466 294.918C251.681 297.949 251.022 301.888 251.336 305.264C252.006 305.126 254.327 304.752 254.688 304.418L254.82 295.254C255.039 298.691 254.952 303.249 254.987 306.764L255.229 323.322C255.441 325.961 256.269 332.113 253.252 333.4C249.995 333.097 250.329 326.748 250.581 324.354Z"/><path fill="#028697" fill-opacity="0.50980395" d="M250.581 324.354C250.673 323.764 250.683 323.374 250.99 322.858C252.377 322.336 252.685 322.263 254.179 322.164L254.541 322.142L254.844 321.632L255.229 323.322C255.441 325.961 256.269 332.113 253.252 333.4C249.995 333.097 250.329 326.748 250.581 324.354Z"/><path fill="#00585D" fill-opacity="0.18039216" d="M21.2877 92.303C24.6883 92.3086 27.4487 95.0542 27.4725 98.4547C27.4964 101.855 24.7747 104.639 21.3746 104.693C17.9325 104.746 15.1067 101.984 15.0826 98.5416C15.0584 95.0992 17.8453 92.2974 21.2877 92.303Z"/><path fill="#01CAE9" d="M208.989 203.709C211.691 202.955 214.491 204.549 215.221 207.259C215.951 209.969 214.331 212.754 211.614 213.458C208.933 214.154 206.192 212.559 205.472 209.884C204.752 207.21 206.321 204.455 208.989 203.709Z"/><path fill="#00585D" fill-opacity="0.18039216" d="M395.133 36.5066C399.956 37.1362 400.798 40.0066 399.618 44.2741C398.066 45.7219 397.603 46.0486 395.588 46.6997C389.95 44.1648 387.845 38.5686 395.133 36.5066Z"/><path fill="#016081" fill-opacity="0.50196081" d="M274.25 290.162C275.327 293.256 274.439 299.907 275.046 303.216C276.24 309.721 270.329 315.059 270.205 305.181C270.274 300.606 270.375 295.56 270.684 291.02L270.782 296.002L271.021 296.119C272.443 295.276 273.854 295.739 274.633 295.147C274.683 294.055 274.233 291.999 274.25 290.162Z"/><path fill="#016081" fill-opacity="0.50196081" d="M133.414 295.556C142.461 295.149 152.991 295.87 161.992 297.007C160.694 297.345 147.417 295.499 146.197 296.225C145.436 299.906 143.955 298.315 142.286 299.75C144.82 299.742 159.779 299.636 160.891 300.703C159.57 300.797 158.076 300.281 156.638 300.232C150.262 300.014 143.902 299.958 137.526 300.198C135.859 300.26 132.75 300.146 131.957 298.408C131.943 297.094 132.567 296.498 133.414 295.556Z"/><path fill="#01CAE9" d="M332.799 140.367C335.247 139.709 337.764 141.168 338.41 143.62C339.056 146.072 337.584 148.581 335.129 149.214C332.691 149.843 330.204 148.384 329.563 145.95C328.922 143.516 330.368 141.021 332.799 140.367Z"/><path fill="#029CC0" d="M298.699 310.866C300.215 310.481 301.82 310.948 302.894 312.085C303.967 313.222 304.341 314.852 303.87 316.343C303.399 317.835 302.157 318.954 300.625 319.268C298.33 319.738 296.08 318.291 295.557 316.008C295.034 313.725 296.429 311.442 298.699 310.866Z"/><path fill="#028697" fill-opacity="0.50980395" d="M395.32 230.644C397.165 230.287 398.951 231.492 399.311 233.337C399.672 235.181 398.47 236.969 396.626 237.333C394.778 237.698 392.984 236.493 392.622 234.643C392.261 232.794 393.47 231.002 395.32 230.644Z"/><path fill="#003D4C" fill-opacity="0.23921569" d="M457.103 0.214774C461.234 0.715276 463.489 4.89489 458.678 7.04846C454.607 7.11717 452.506 3.07137 457.103 0.214774Z"/><path fill="#003D4C" fill-opacity="0.23921569" d="M435.531 62.8705C436.638 62.5229 437.846 62.8136 438.674 63.6268C439.502 64.4399 439.814 65.643 439.487 66.7561C439.159 67.8692 438.244 68.7112 437.108 68.9461C435.469 69.285 433.851 68.2789 433.43 66.6584C433.01 65.0379 433.933 63.3721 435.531 62.8705Z"/><path fill="#003D4C" fill-opacity="0.23921569" d="M23.2847 48.5207C27.4309 48.4271 28.0815 52.5649 24.1611 54.8431C20.0543 55.0016 19.6661 50.8181 23.2847 48.5207Z"/><path fill="#01CAE9" d="M111.558 319.022C113.074 318.602 114.646 319.482 115.082 320.994C115.517 322.506 114.654 324.087 113.147 324.538C112.157 324.835 111.085 324.577 110.339 323.863C109.593 323.149 109.287 322.089 109.54 321.088C109.792 320.086 110.562 319.297 111.558 319.022Z"/><path fill="#003D4C" fill-opacity="0.23921569" d="M50.675 29.2646C54.766 29.0308 56.0179 31.9463 52.7234 34.7385C48.8075 35.9 47.8668 32.2066 50.675 29.2646Z"/><path fill="#016081" fill-opacity="0.50196081" d="M86.0535 228.681C87.4462 228.058 89.0805 228.673 89.7171 230.06C90.3537 231.446 89.7552 233.086 88.3754 233.737C87.4703 234.164 86.4058 234.071 85.5875 233.495C84.7692 232.919 84.3233 231.948 84.4197 230.952C84.5161 229.956 85.14 229.089 86.0535 228.681Z"/><path fill="#016081" fill-opacity="0.50196081" d="M184.968 257.39C185.945 257.216 186.94 257.58 187.574 258.344C188.208 259.108 188.383 260.153 188.032 261.082C187.681 262.01 186.859 262.679 185.878 262.832C184.384 263.066 182.98 262.053 182.73 260.562C182.481 259.07 183.479 257.655 184.968 257.39Z"/><path fill="#016081" fill-opacity="0.50196081" d="M2.32752 280.72C5.81355 280.51 6.70867 284.855 3.24832 286.492C-0.810037 285.461 -0.528914 283.025 2.32752 280.72Z"/><path fill="#028697" fill-opacity="0.50980395" d="M272.749 331.962C276.028 332.071 277.327 335.253 274.435 336.968C270.73 336.549 269.061 333.976 272.749 331.962Z"/><path fill="#016081" fill-opacity="0.50196081" d="M158.248 319.643C159.544 319.217 160.941 319.913 161.382 321.204C161.823 322.495 161.142 323.901 159.856 324.356C159.011 324.655 158.071 324.477 157.393 323.889C156.716 323.302 156.407 322.396 156.584 321.517C156.761 320.639 157.396 319.923 158.248 319.643Z"/><path fill="#016081" fill-opacity="0.50196081" d="M87.2873 318.698C90.6995 318.969 91.8706 321.764 88.4306 323.476C85.2064 323.994 84.5201 320.694 87.2873 318.698Z"/><path fill="#00585D" fill-opacity="0.18039216" d="M455.379 113.936C458.965 113.996 459.15 116.485 456.861 118.762C454.014 118.868 452.975 115.764 455.379 113.936Z"/><path fill="#002D47" fill-opacity="0.20784314" d="M303.275 12.2023C306.259 13.1917 306.634 14.9069 304.298 17.1478C301.575 16.4704 300.592 13.9312 303.275 12.2023Z"/><path fill="#003D4C" fill-opacity="0.23921569" d="M113.065 38.2091C115.958 38.5662 117.179 40.1932 114.757 42.4285C112.334 42.6412 111.485 39.88 113.065 38.2091Z"/><path fill="#016081" fill-opacity="0.50196081" d="M424.355 304.631C425.604 305.182 426.554 306.229 426.554 307.648C426.122 308.555 426.411 308.256 425.389 308.718C422.032 308.316 421.914 306.712 424.355 304.631Z"/><path fill="#003D4C" fill-opacity="0.23921569" d="M336.498 21.9453C339.878 21.883 339.267 23.9829 337.777 25.9513L336.988 26.1771C336.081 25.9701 336.392 26.1717 335.818 25.4769C335.455 24.0282 335.801 23.1628 336.498 21.9453Z"/><path fill="#003D4C" fill-opacity="0.23921569" d="M499.001 342.747C500.242 342.715 501.823 342.626 502.036 344.197C501.373 345.047 501.649 344.763 500.427 345.223C499.271 345.471 497.784 345.973 497.369 344.594C497.725 343.624 498.183 343.395 499.001 342.747Z"/><path fill="#028697" fill-opacity="0.50980395" d="M144.386 192.712C144.979 192.479 145.652 192.584 146.146 192.987C146.64 193.39 146.878 194.028 146.769 194.656C146.66 195.284 146.221 195.804 145.62 196.017C144.713 196.34 143.714 195.874 143.377 194.972C143.04 194.069 143.489 193.064 144.386 192.712Z"/><path fill="#003D4C" fill-opacity="0.23921569" d="M204.268 1.89909C205.628 2.19396 206.404 2.65121 206.711 3.98665C206.344 4.95972 206.541 4.60821 205.606 5.37785C204.707 5.47908 204.58 5.48484 203.703 5.27544C202.294 4.07408 203.345 3.05783 204.268 1.89909Z"/><path fill="#016081" fill-opacity="0.50196081" d="M165.092 205.144C167.533 205.292 167.26 207.585 165.749 209.059C162.751 208.305 163.065 206.832 165.092 205.144Z"/><path fill="#003D4C" fill-opacity="0.23921569" d="M327.344 267.218C330.214 267.321 331.009 268.896 330.508 271.536C328.796 271.012 327.022 269.13 327.344 267.218Z"/><path fill="#002D47" fill-opacity="0.20784314" d="M482.458 279.435C484.726 280.055 484.888 282.912 484.975 284.915C482.496 284.157 482.226 281.695 482.458 279.435Z"/><path fill="#016081" fill-opacity="0.50196081" d="M341.214 230.916C341.695 230.961 342.018 231.032 342.487 231.123C343.82 232.088 343.665 233.133 342.832 234.425C341.431 234.195 340.796 234.157 340.3 232.781C340.406 231.824 340.593 231.672 341.214 230.916Z"/><path fill="#00585D" fill-opacity="0.18039216" d="M134.575 77.2064C135.333 77.2169 135.359 77.2078 136.083 77.4016C137.194 78.6742 136.815 79.596 135.894 80.9361C133.936 80.0622 132.923 79.0885 134.575 77.2064Z"/><path fill="#016081" fill-opacity="0.50196081" d="M148.984 67.3762L150.107 67.5718C151.401 68.7102 151.22 69.3758 150.186 70.6891C149.512 70.7837 149.458 70.7374 148.809 70.6125C147.617 69.4783 148.095 68.5593 148.984 67.3762Z"/><path fill="#00585D" fill-opacity="0.18039216" d="M421.334 84.9304C422.695 85.0562 423.319 85.1513 423.866 86.4611C423.772 87.2676 423.765 87.2913 423.206 87.9071C421.889 87.8006 421.245 87.9066 420.557 86.6656C420.621 85.7559 420.747 85.6901 421.334 84.9304Z"/><path fill="#002D47" fill-opacity="0.20784314" d="M32.0685 344.392L32.4461 344.571L32.5756 344.993C31.6466 347.189 32.3527 348.151 31.7715 349.621C28.8926 348.585 30.5178 345.857 32.0685 344.392Z"/><path fill="#01CAE9" d="M215.257 291.897C215.956 291.802 216.601 292.29 216.699 292.989C216.798 293.688 216.313 294.335 215.615 294.437C214.911 294.54 214.258 294.051 214.159 293.347C214.06 292.643 214.552 291.992 215.257 291.897Z"/><path fill="#003D4C" fill-opacity="0.23921569" d="M388.265 167.594C389.306 167.699 390.022 167.708 390.733 168.389C390.764 169.249 390.725 169.02 390.234 169.895C389.317 170.192 389.479 170.297 388.708 170.083C388.167 169.371 388.284 168.54 388.265 167.594Z"/><path fill="#003D4C" fill-opacity="0.23921569" d="M472.065 51.3925C472.496 51.2219 472.986 51.3026 473.34 51.6023C473.693 51.9019 473.853 52.3719 473.756 52.825C473.658 53.2781 473.319 53.6406 472.873 53.7681C472.229 53.9524 471.554 53.599 471.338 52.9649C471.123 52.3307 471.443 51.6389 472.065 51.3925Z"/><path fill="#016081" fill-opacity="0.50196081" d="M275.166 179.693C276.242 179.75 276.333 179.641 276.937 180.255C276.988 181.048 276.569 181.479 276.112 182.175C275.129 182.211 274.833 182.199 274.406 181.29C274.517 180.431 274.598 180.394 275.166 179.693Z"/><path fill="#003D4C" fill-opacity="0.23921569" d="M8.95959 156.309C10.5964 156.715 11.2586 157.7 10.6093 159.262C9.60746 159.304 9.42679 159.153 8.79481 158.507C8.53285 157.546 8.69646 157.262 8.95959 156.309Z"/><path fill="#003D4C" fill-opacity="0.23921569" d="M498.847 225.636C499.276 225.271 499.917 225.312 500.297 225.729C500.676 226.146 500.657 226.788 500.253 227.181C499.98 227.448 499.583 227.544 499.218 227.432C498.852 227.32 498.577 227.018 498.5 226.644C498.423 226.27 498.556 225.884 498.847 225.636Z"/><path fill="#016081" fill-opacity="0.50196081" d="M136.293 170.828C138.064 170.962 138.257 172.01 138.605 173.552C136.839 173.179 136.53 172.428 136.293 170.828Z"/></svg>